<?xml version="1.0" encoding="iso-8859-1"?>
<!-- Generator: Adobe Illustrator 19.0.0, SVG Export Plug-In . SVG Version: 6.00 Build 0)  -->
<svg version="1.1" id="Capa_1" xmlns="http://www.w3.org/2000/svg" xmlns:xlink="http://www.w3.org/1999/xlink" x="0px" y="0px"
	 viewBox="0 0 512 512" style="enable-background:new 0 0 512 512;" xml:space="preserve">
<linearGradient id="SVGID_1_" gradientUnits="userSpaceOnUse" x1="-45.1912" y1="615.9688" x2="11.4287" y2="615.9688" gradientTransform="matrix(10.6667 0 0 -10.6667 473.6667 6826.3335)">
	<stop  offset="0" style="stop-color:#E93E3A"/>
	<stop  offset="0.359" style="stop-color:#ED683C"/>
	<stop  offset="0.702" style="stop-color:#F3903F"/>
	<stop  offset="1" style="stop-color:#FDC70C"/>
</linearGradient>
<path style="fill:url(#SVGID_1_);" d="M256,0C114.615,0,0,114.615,0,256s114.615,256,256,256s256-114.615,256-256
	C511.835,114.683,397.317,0.165,256,0z M256,490.667C126.397,490.667,21.333,385.603,21.333,256S126.397,21.333,256,21.333
	S490.667,126.397,490.667,256C490.52,385.542,385.542,490.52,256,490.667z"/>
<g>
	
		<linearGradient id="SVGID_2_" gradientUnits="userSpaceOnUse" x1="-45.1912" y1="618.0557" x2="11.4287" y2="618.0557" gradientTransform="matrix(10.6667 0 0 -10.6667 473.6667 6826.3335)">
		<stop  offset="0" style="stop-color:#E93E3A"/>
		<stop  offset="0.359" style="stop-color:#ED683C"/>
		<stop  offset="0.702" style="stop-color:#F3903F"/>
		<stop  offset="1" style="stop-color:#FDC70C"/>
	</linearGradient>
	<path style="fill:url(#SVGID_2_);" d="M286.379,98.976l28.587-19.36l-11.957-17.664l-52.992,35.883
		c-4.878,3.304-6.153,9.936-2.85,14.813c0.001,0.001,0.001,0.002,0.002,0.003l35.893,52.981l17.664-11.957l-23.392-34.528
		c75.632,11.732,127.433,82.555,115.7,158.187c-7.631,49.191-41.059,90.511-87.572,108.245l7.616,19.947
		c82.549-31.53,123.908-124.009,92.379-206.558c-19.733-51.665-64.749-89.476-119.045-99.991L286.379,98.976z"/>
	
		<linearGradient id="SVGID_3_" gradientUnits="userSpaceOnUse" x1="-45.1912" y1="613.8577" x2="11.4287" y2="613.8577" gradientTransform="matrix(10.6667 0 0 -10.6667 473.6667 6826.3335)">
		<stop  offset="0" style="stop-color:#E93E3A"/>
		<stop  offset="0.359" style="stop-color:#ED683C"/>
		<stop  offset="0.702" style="stop-color:#F3903F"/>
		<stop  offset="1" style="stop-color:#FDC70C"/>
	</linearGradient>
	<path style="fill:url(#SVGID_3_);" d="M228.48,346.571l-17.568,12.107l23.52,34.133c-75.615-11.879-127.283-82.806-115.404-158.421
		c7.691-48.959,40.94-90.085,87.202-107.861l-7.659-19.915c-82.467,31.743-123.587,124.329-91.843,206.797
		c19.857,51.587,64.935,89.27,119.225,99.667l-28.715,19.776l12.107,17.568l52.704-36.267c4.849-3.339,6.076-9.975,2.741-14.827
		L228.48,346.571z"/>
</g>
<g>
</g>
<g>
</g>
<g>
</g>
<g>
</g>
<g>
</g>
<g>
</g>
<g>
</g>
<g>
</g>
<g>
</g>
<g>
</g>
<g>
</g>
<g>
</g>
<g>
</g>
<g>
</g>
<g>
</g>
</svg>
